# xmcd CD database file
#
# Track frame offsets:
#	150
#	17121
#	34640
#	44069
#	63632
#	83903
#	100085
#	117247
#	127518
#	151980
#	168216
#	184917
#	199687
#	218578
#	231261
#	245955
#	256364
#	268870
#	281915
#	296778
#
# Disc length: 4135 seconds
#
# Revision: 0
# Processed by: cddbd v1.5.2PL0 Copyright (c) Steve Scherf et al.
# Submitted via: CDex 1.51
#
DISCID=2a102514
DTITLE=Various Artist - Cool Tempo - The Best Of  - CD4 - Coll Jazz and Vintage Jazz
DYEAR=2011
DGENRE=Jazz
TTITLE0=Jamie Lidell_Another Day
TTITLE1=Diana Krall_Straighten Up And Fly Right
TTITLE2=Michael Buble_Me and Mrs You
TTITLE3=Joel Harrison and Norah Jones_Tennesee Waltz
TTITLE4=Mocky_Birds Of A Feather
TTITLE5=Mathhoeu Boré_Georgia On My Mind
TTITLE6=Ben Sidran_Knockin' On Heaven's Door
TTITLE7=Susie Arioli_Honeysuckle Rose
TTITLE8=Peder Feat.Dean Bowman_The Sour
TTITLE9=Nina Simone_My Baby Just Cares For Me
TTITLE10=Frank Sinatra_I've Got You Under My Skin
TTITLE11=Peggy Lee_Fever
TTITLE12=Louis Armstrong and Ella Fitzgerald_Let's Call The Whole Thing Off
TTITLE13=Billie Holiday_Them There Eyes
TTITLE14=Sarah Vaughan_Summertime
TTITLE15=Chet Baker_My Funny Valentine
TTITLE16=Julie London_Cry Me A River
TTITLE17=Duke Ellington_Take The "A" Train
TTITLE18=Sidney Bechet_Petite Fleur
TTITLE19=Miles Davis and Charlie Parker_Cheryl
EXTD=YEAR: 2011
EXTT0=
EXTT1=
EXTT2=
EXTT3=
EXTT4=
EXTT5=
EXTT6=
EXTT7=
EXTT8=
EXTT9=
EXTT10=
EXTT11=
EXTT12=
EXTT13=
EXTT14=
EXTT15=
EXTT16=
EXTT17=
EXTT18=
EXTT19=
PLAYORDER=
